# AST/ASF file generated using VICON BodyLanguage
# -----------------------------------------------
:version 1.10
:name VICON
:units
  mass 1.0
  length 0.45
  angle deg
:documentation
   .ast/.asf automatically generated from VICON data using
   VICON BodyBuilder and BodyLanguage model FoxedUp or BRILLIANT.MOD
:root
   order TX TY TZ RX RY RZ
   axis XYZ
   position 0 0 0  
   orientation 0 0 0 
:bonedata
  begin
     id 1 
     name lhipjoint
     direction 0.54267 -0.795011 0.271047 
     length 2.39899 
     axis 0 0 0  XYZ
  end
  begin
     id 2 
     name lfemur
     direction 0.34202 -0.939693 0  
     length 7.49701  
     axis 0 0 20  XYZ
    dof rx ry rz
    limits (-160.0 20.0)
           (-70.0 70.0)
           (-60.0 70.0)
  end
  begin
     id 3 
     name ltibia
     direction 0.34202 -0.939693 0   
     length 8.1668   
     axis 0 0 20   XYZ
    dof rx
    limits (-10.0 170.0)
  end
  begin
     id 4 
     name lfoot
     direction 0.0736283 -0.202292 0.976554   
     length 2.13544   
     axis -90 7.62852e-016 20   XYZ
    dof rx rz
    limits (-45.0 90.0)
           (-70.0 20.0)
  end
  begin
     id 5 
     name ltoes
     direction 1.53557e-011 -4.22024e-011 1   
     length 1.07411   
     axis -90 7.62852e-016 20   XYZ
    dof rx
    limits (-90.0 20.0)
  end
  begin
     id 6 
     name rhipjoint
     direction -0.538061 -0.797813 0.272002   
     length 2.39057  
     axis 0 0 0  XYZ 
  end
  begin
     id 7 
     name rfemur
     direction -0.34202 -0.939693 0   
     length 7.50152   
     axis 0 0 -20   XYZ
    dof rx ry rz
    limits (-160.0 20.0)
           (-70.0 70.0)
           (-70.0 60.0)
  end
  begin
     id 8 
     name rtibia
     direction -0.34202 -0.939693 0   
     length 8.05793   
     axis 0 0 -20   XYZ
    dof rx
    limits (-10.0 170.0)
 end
 begin
     id 9 
     name rfoot
     direction -0.0765195 -0.210236 0.974652   
     length 2.28698  
     axis -90 -7.62852e-016 -20   XYZ
    dof rx rz
    limits (-45.0 90.0)
           (-20.0 70.0)
  end
  begin
     id 10 
     name rtoes
     direction -1.53542e-011 -4.21847e-011 1   
     length 1.14762   
     axis -90 -7.62852e-016 -20   XYZ
    dof rx
    limits (-90.0 20.0)
  end
  begin
     id 11 
     name lowerback
     direction -0.0217239 0.996592 -0.0795765   
     length 2.08176   
     axis 0 0 0   XYZ
    dof rx ry rz
    limits (-20.0 45.0)
           (-30.0 30.0)
           (-30.0 30.0)
  end
  begin
     id 12 
     name upperback
     direction -0.00563773 0.999651 -0.0258155   
     length 2.08898   
     axis 0 0 0   XYZ
    dof rx ry rz
    limits (-20.0 45.0)
           (-30.0 30.0)
           (-30.0 30.0)
  end
  begin
     id 13 
     name thorax
     direction 0.0032706 0.999923 0.0119599   
     length 2.0968   
     axis 0 0 0   XYZ
    dof rx ry rz
    limits (-20.0 45.0)
           (-30.0 30.0)
           (-30.0 30.0)
  end
  begin
     id 14 
     name lowerneck
     direction -0.0285886 0.99568 0.0883427   
     length 1.81272   
     axis 0 0 0   XYZ
    dof rx ry rz
    limits (-20.0 45.0)
           (-30.0 30.0)
           (-30.0 30.0)
  end
  begin
     id 15 
     name upperneck
     direction 0.0807535 0.97985 -0.18268   
     length 1.82518   
     axis 0 0 0   XYZ
    dof rx ry rz
    limits (-20.0 45.0)
           (-30.0 30.0)
           (-30.0 30.0)
  end
  begin
     id 16
     name head
     direction 0.0236605 0.997053 -0.0729767  
     length 1.84443  
     axis 0 0 0   XYZ
    dof rx ry rz
    limits (-20.0 45.0)
           (-30.0 30.0)
           (-30.0 30.0)
  end
  begin
     id 17 
     name lclavicle
     direction 0.918986 0.39378 -0.0200683  
     length 3.27822  
     axis 0 0 0   XYZ
    dof ry rz
    limits (-20.0 10.0)
           (0.0 20.0)
  end
  begin
     id 18 
     name lhumerus
     direction 1 -4.4897e-011 2.09544e-027   
     length 5.5568   
     axis 180 -30 -90   XYZ
    dof rx ry rz
    limits (-60.0 90.0)
           (-90.0 90.0)
           (-90.0 90.0)
  end
  begin
     id 19
     name lradius
     direction 1 -4.48957e-011 -1.27696e-026   
     length 3.63979   
     axis 180 -30 -90   XYZ
    dof rx
    limits (-10.0 170.0)
  end
  begin
     id 20
     name lwrist
     direction 1 -4.49001e-011 -1.49001e-026   
     length 1.8199   
     axis 9.0955e-015 90 90   XYZ
    dof ry
    limits (-180.0 0.0)
 end
  begin
     id 21 
     name lhand
     direction 1 -4.48709e-011 -2.9758e-026   
     length 0.569419   
     axis 1.90115e-014 90 90   XYZ
    dof rx rz
    limits (-90.0 90.0)
           (-45.0 45.0)
  end
  begin
     id 22 
     name lfingers
     direction 1 -4.49175e-011 -5.96505e-026   
     length 0.45908   
     axis 3.80223e-014 90 90   XYZ
    dof rx
    limits (0.0 90.0)
  end
  begin
     id 23
     name lthumb
     direction 0.707107 -6.34864e-011 0.707107   
     length 0.65915   
     axis -90 45 -3.84942e-014   XYZ
    dof rx rz
    limits (-45.0 45.0)
           (-45.0 45.0)
  end
  begin
     id 24 
     name rclavicle
     direction -0.911913 0.396426 -0.106115   
     length 3.46301  
     axis 0 0 0   XYZ 
    dof ry rz
    limits (-10.0 20.0)
           (-20.0 0.0)
  end
  begin
     id 25 
     name rhumerus
     direction -1 -4.48965e-011 7.78516e-028  
     length 5.34339   
     axis 180 30 90   XYZ
    dof rx ry rz
    limits (-90.0 60.0)
           (-90.0 90.0)
           (-90.0 90.0)
  end
  begin
     id 26 
     name rradius
     direction -1 -4.48948e-011 -5.79823e-027   
     length 3.65101   
     axis 180 30 90   XYZ
    dof rx
    limits (-10.0 170.0)
  end
  begin
     id 27 
     name rwrist
     direction -1 -4.48995e-011 -1.48996e-026   
     length 1.8255   
     axis 9.0955e-015 -90 -90   XYZ
    dof ry
    limits (-180.0 0.0)
  end
  begin
     id 28
     name rhand
     direction -1 -4.48957e-011 -2.97937e-026   
     length 0.694249   
     axis 1.90115e-014 -90 -90   XYZ
    dof rx rz
    limits (-90.0 90.0)
           (-45.0 45.0)
  end
  begin
     id 29
     name rfingers
     direction -1 -4.4898e-011 -5.95943e-026   
     length 0.559721   
     axis 3.80223e-014 -90 -90   XYZ
    dof rx
    limits (0.0 90.0)
  end
  begin
     id 30
     name rthumb
     direction -0.707107 -6.34969e-011 0.707107   
     length 0.803651   
     axis -90 -45 3.84942e-014   XYZ
    dof rx rz
    limits (-45.0 45.0)
           (-45.0 45.0)
  end
:hierarchy
  begin
    root lhipjoint rhipjoint lowerback
    lhipjoint lfemur
    lfemur ltibia
    ltibia lfoot
    lfoot ltoes
    rhipjoint rfemur
    rfemur rtibia
    rtibia rfoot
    rfoot rtoes
    lowerback upperback
    upperback thorax
    thorax lowerneck lclavicle rclavicle
    lowerneck upperneck
    upperneck head
    lclavicle lhumerus
    lhumerus lradius
    lradius lwrist
    lwrist lhand lthumb
    lhand lfingers
    rclavicle rhumerus
    rhumerus rradius
    rradius rwrist
    rwrist rhand rthumb
    rhand rfingers
  end

#!OML:ASF H:\Terrain\Walking\May29\JustinRory\rory.ASF
:FULLY-SPECIFIED
:DEGREES
326
root 13.2886 16.6501 2.92746 -8.28995 33.9447 -2.59638
lowerback 20.1932 5.96322 3.23246
upperback 8.06404 8.54146 -1.18397
thorax -1.79057 4.43874 -4.83224
lowerneck -5.37573 -11.4251 -13.281
upperneck 17.4595 -14.8302 5.55828
head 7.69384 -7.49551 2.55078
rclavicle -9.93923e-015 1.78906e-015
rhumerus -20.3787 55.5942 -37.8048
rradius 23.0189
rwrist -34.254
rhand -45.3631 -5.80325
rfingers 7.12502
rthumb -18.133 -34.978
lclavicle -9.93923e-015 1.78906e-015
lhumerus -52.6667 17.1146 30.4985
lradius 25.9925
lwrist -4.10207
lhand -3.66423 19.6897
lfingers 7.12502
lthumb 22.0764 48.4495
rfemur -32.154 -22.002 4.32165
rtibia 76.3912
rfoot -3.91819 20.4206
rtoes -24.2386
lfemur -39.9149 3.85133 -23.1618
ltibia 51.4877
lfoot -4.46249 3.23104
ltoes 18.7525
327
root 13.2765 16.6298 3.08432 -8.96382 33.6999 -2.82895
lowerback 20.6057 5.98772 3.20411
upperback 8.26546 8.58491 -1.08597
thorax -1.79656 4.46451 -4.75742
lowerneck -5.07974 -11.9572 -13.9758
upperneck 16.5068 -15.7306 6.81893
head 7.57915 -7.88354 2.96853
rclavicle 4.88016e-014 -2.70347e-014
rhumerus -19.6047 54.3349 -37.3038
rradius 22.5561
rwrist -31.3308
rhand -46.9081 -6.00224
rfingers 7.12502
rthumb -19.6189 -35.0323
lclavicle 4.88016e-014 -2.70347e-014
lhumerus -52.1525 16.9182 30.0501
lradius 26.3088
lwrist -3.33775
lhand -4.73426 20.0628
lfingers 7.12502
lthumb 21.0487 48.9405
rfemur -31.8565 -20.8049 3.23932
rtibia 75.8512
rfoot -4.20918 17.0553
rtoes -20.8285
lfemur -39.6598 3.79431 -22.374
ltibia 52.9108
lfoot -5.2887 2.93866
ltoes 15.1794
328
root 13.2653 16.6129 3.24658 -9.3677 33.648 -2.77391
lowerback 20.8197 5.98351 2.80924
upperback 8.46547 8.51723 -0.966955
thorax -1.77326 4.42626 -4.41552
lowerneck -4.42863 -12.502 -14.3233
upperneck 15.0978 -16.6026 7.55604
head 7.19447 -8.29121 3.20221
rclavicle 1.44218e-013 -3.26007e-014
rhumerus -18.1255 51.9704 -36.1857
rradius 21.8984
rwrist -27.9796
rhand -47.3642 -3.56133
rfingers 7.12502
rthumb -20.0574 -32.5461
lclavicle 1.44218e-013 -3.26007e-014
lhumerus -51.9346 17.29 29.3869
lradius 26.6016
lwrist -3.00454
lhand -6.34178 20.8415
lfingers 7.12502
lthumb 19.5038 49.8833
rfemur -31.4073 -19.8216 1.94245
rtibia 74.7931
rfoot -5.47158 13.6691
rtoes -19.4088
lfemur -39.3235 3.71251 -21.9364
ltibia 54.1339
lfoot -6.12612 2.66771
ltoes 14.8302
329
root 13.2485 16.5844 3.40889 -9.59399 33.7143 -2.79847
lowerback 20.8809 5.99736 2.5
upperback 8.5657 8.4845 -0.832033
thorax -1.76664 4.40264 -4.09931
lowerneck -3.39956 -12.9941 -14.7947
upperneck 13.466 -17.4426 8.46789
head 6.71272 -8.69689 3.54188
rclavicle -1.27222e-014 -9.93923e-016
rhumerus -16.9936 49.251 -35.4062
rradius 21.0077
rwrist -23.8536
rhand -47.8188 -1.41768
rfingers 7.12502
rthumb -20.4943 -30.356
lclavicle -1.27222e-014 -9.93923e-016
lhumerus -51.3973 17.7202 28.7828
lradius 26.4883
lwrist -2.40256
lhand -8.58481 21.7324
lfingers 7.12502
lthumb 17.3461 50.9784
rfemur -31.0648 -19.0348 0.870206
rtibia 73.2948
rfoot -6.82721 10.303
rtoes -18.3942
lfemur -39.247 3.67077 -21.4914
ltibia 55.212
lfoot -6.82478 2.4009
ltoes 15.3674
330
root 13.2287 16.5555 3.57258 -9.75999 33.739 -3.0903
lowerback 20.6477 5.99546 2.44424
upperback 8.68097 8.47577 -0.68235
thorax -1.5587 4.40202 -3.87211
lowerneck -2.68687 -13.4717 -15.4643
upperneck 12.2312 -18.2621 9.67807
head 6.47483 -9.08209 3.9712
rclavicle 3.06128e-014 -2.76311e-014
rhumerus -15.8763 46.168 -34.7637
rradius 20.0929
rwrist -19.1393
rhand -46.5964 -2.10799
rfingers 7.12502
rthumb -19.3193 -31.1683
lclavicle 3.06128e-014 -2.76311e-014
lhumerus -50.6769 17.8742 28.5602
lradius 26.5142
lwrist -1.33349
lhand -10.5034 22.0496
lfingers 7.12502
lthumb 15.4989 51.4483
rfemur -30.8863 -18.2413 0.169829
rtibia 71.3848
rfoot -7.8017 7.19211
rtoes -17.4867
lfemur -39.3736 3.68165 -20.812
ltibia 56.1942
lfoot -7.56476 2.14417
ltoes 15.3648
331
root 13.2134 16.5344 3.73578 -9.97222 33.8956 -3.63294
lowerback 20.2144 5.90796 2.61725
upperback 8.82908 8.39729 -0.473896
thorax -1.19618 4.37585 -3.66753
lowerneck -2.1118 -14.0717 -16.1719
upperneck 11.2092 -19.2305 10.8772
head 6.37027 -9.54287 4.36152
rclavicle 2.67365e-014 1.98785e-015
rhumerus -14.7743 43.0108 -34.1571
rradius 19.2728
rwrist -14.207
rhand -45.7386 -1.95849
rfingers 7.12502
rthumb -18.4943 -31.0993
lclavicle 2.67365e-014 1.98785e-015
lhumerus -50.1132 17.8685 28.6671
lradius 27.0633
lwrist -0.281767
lhand -12.1598 22.9608
lfingers 7.12502
lthumb 13.9031 52.476
rfemur -30.4473 -17.4844 -0.32094
rtibia 68.9883
rfoot -8.61817 4.3439
rtoes -14.5753
lfemur -39.5263 3.46299 -19.943
ltibia 57.1073
lfoot -8.35404 1.86428
ltoes 15.5773
332
root 13.2018 16.5196 3.89623 -10.0586 34.2892 -4.22336
lowerback 19.7278 5.63246 2.89621
upperback 8.84597 8.08427 -0.314962
thorax -0.943298 4.22987 -3.53608
lowerneck -1.26965 -14.5505 -16.778
upperneck 9.97551 -20.0356 11.9363
head 6.12618 -9.94572 4.73884
rclavicle -5.56597e-015 9.14409e-015
rhumerus -13.5748 39.9869 -33.8006
rradius 18.409
rwrist -8.87583
rhand -45.0694 -2.17369
rfingers 7.12502
rthumb -17.8505 -31.3744
lclavicle -5.56597e-015 9.14409e-015
lhumerus -49.8726 17.7826 28.6475
lradius 27.6952
lwrist 0.771604
lhand -14.5503 23.9594
lfingers 7.12502
lthumb 11.5984 53.6184
rfemur -29.8203 -16.9083 -0.740062
rtibia 66.1279
rfoot -9.74959 1.39521
rtoes -11.4168
lfemur -39.8432 2.95804 -19.0862
ltibia 57.9692
lfoot -9.03749 1.60797
ltoes 13.9257
333
root 13.1841 16.5026 4.06141 -9.81931 34.8919 -4.24255
lowerback 19.3483 5.33245 2.71055
upperback 8.78115 7.6507 -0.383005
thorax -0.871093 4.00959 -3.39068
lowerneck -0.370946 -14.9184 -17.0265
upperneck 8.78654 -20.6946 12.8856
head 5.83174 -10.281 5.06131
rclavicle 1.5207e-014 -5.56597e-015
rhumerus -12.5473 37.2214 -33.9501
rradius 17.6253
rwrist -3.54671
rhand -43.3143 -1.61935
rfingers 7.12502
rthumb -16.161 -30.9656
lclavicle 1.5207e-014 -5.56597e-015
lhumerus -49.6102 17.3818 28.6227
lradius 28.3218
lwrist 2.13286
lhand -17.4676 24.4482
lfingers 7.12502
lthumb 8.78414 54.2454
rfemur -29.0167 -16.3814 -1.70971
rtibia 62.9142
rfoot -10.8579 -1.63942
rtoes -9.91135
lfemur -40.1842 2.32514 -18.7694
ltibia 58.81
lfoot -9.51719 1.43843
ltoes 7.66592
334
root 13.153 16.4767 4.22801 -9.422 35.5856 -3.86699
lowerback 19.1301 5.16307 2.12656
upperback 8.71539 7.32219 -0.547717
thorax -0.908394 3.83085 -3.16679
lowerneck 0.4419 -15.3264 -16.9634
upperneck 7.89143 -21.4008 13.7115
head 5.61412 -10.6374 5.2872
rclavicle -3.47873e-015 3.1408e-014
rhumerus -11.8804 33.9706 -34.3577
rradius 16.8392
rwrist 2.12993
rhand -41.7312 0.355377
rfingers 7.12502
rthumb -14.6362 -29.1081
lclavicle -3.47873e-015 3.1408e-014
lhumerus -49.0643 16.8129 28.8054
lradius 29.0067
lwrist 3.33039
lhand -20.491 24.6154
lfingers 7.12502
lthumb 5.86578 54.5142
rfemur -28.0456 -15.7512 -2.97928
rtibia 59.4275
rfoot -11.3781 -4.98897
rtoes -11.2914
lfemur -40.5177 1.8224 -18.8236
ltibia 59.6356
lfoot -9.96048 1.27294
ltoes 1.66735
335
root 13.0982 16.4448 4.38586 -9.58592 36.4227 -4.52521
lowerback 18.7625 4.89601 1.94597
upperback 8.85374 6.95364 -0.164325
thorax -0.671666 3.6403 -2.55517
lowerneck 0.753736 -15.756 -17.1223
upperneck 7.18201 -22.0273 14.224
head 5.51829 -10.9517 5.41017
rclavicle 5.63555e-014 -2.10712e-014
rhumerus -10.6565 29.1506 -34.1414
rradius 15.8878
rwrist 9.07212
rhand -39.5254 4.09105
rfingers 7.12502
rthumb -12.5102 -25.5145
lclavicle 5.63555e-014 -2.10712e-014
lhumerus -48.51 16.8556 29.4217
lradius 29.7451
lwrist 4.26539
lhand -22.9826 25.048
lfingers 7.12502
lthumb 3.45993 54.9996
rfemur -26.9865 -14.836 -3.19705
rtibia 55.7322
rfoot -11.3925 -8.71292
rtoes -12.3438
lfemur -41.0584 1.30355 -17.9325
ltibia 60.4375
lfoot -10.4775 0.814488
ltoes 1.66295
